<svg width="110" height="32" viewBox="0 0 110 32" fill="none" xmlns="http://www.w3.org/2000/svg">
<path d="M1 31H8.88V16.8L23.04 31H26.28V0.999998H18.4V15.16L4.2 0.999998H1V31ZM63.2491 16.04C63.2491 7.76 56.5291 0.999998 48.2491 0.999998C39.9691 0.999998 33.2891 7.76 33.2891 16.04C33.2891 24.32 39.9691 31 48.2491 31C56.5291 31 63.2491 24.32 63.2491 16.04ZM55.4091 16C55.4091 19.92 52.2091 23.16 48.2491 23.16C44.3291 23.16 41.1291 19.92 41.1291 16C41.1291 12.04 44.3291 8.84 48.2491 8.84C52.2091 8.84 55.4091 12.04 55.4091 16ZM76.6931 31H84.6531L87.6131 22.12L90.4931 31H98.4531L108.333 0.999998H100.333L94.4931 18.84L91.5731 10.04H83.6131L80.6931 18.88L74.8531 0.999998H66.8531L76.6931 31Z" fill="white"/>
<path d="M1 31H0.5V31.5H1V31ZM8.88 31V31.5H9.38V31H8.88ZM8.88 16.8L9.23405 16.4469L8.38 15.5905V16.8H8.88ZM23.04 31L22.6859 31.3531L22.8325 31.5H23.04V31ZM26.28 31V31.5H26.78V31H26.28ZM26.28 0.999998H26.78V0.499998H26.28V0.999998ZM18.4 0.999998V0.499998H17.9V0.999998H18.4ZM18.4 15.16L18.0469 15.5141L18.9 16.3647V15.16H18.4ZM4.2 0.999998L4.55305 0.645946L4.40669 0.499998H4.2V0.999998ZM1 0.999998V0.499998H0.5V0.999998H1ZM1 31.5H8.88V30.5H1V31.5ZM9.38 31V16.8H8.38V31H9.38ZM8.52595 17.1531L22.6859 31.3531L23.3941 30.6469L9.23405 16.4469L8.52595 17.1531ZM23.04 31.5H26.28V30.5H23.04V31.5ZM26.78 31V0.999998H25.78V31H26.78ZM26.28 0.499998H18.4V1.5H26.28V0.499998ZM17.9 0.999998V15.16H18.9V0.999998H17.9ZM18.7531 14.8059L4.55305 0.645946L3.84695 1.35405L18.0469 15.5141L18.7531 14.8059ZM4.2 0.499998H1V1.5H4.2V0.499998ZM0.5 0.999998V31H1.5V0.999998H0.5ZM63.7491 16.04C63.7491 7.48559 56.8069 0.499998 48.2491 0.499998V1.5C56.2512 1.5 62.7491 8.03441 62.7491 16.04H63.7491ZM48.2491 0.499998C39.6895 0.499998 32.7891 7.48734 32.7891 16.04H33.7891C33.7891 8.03266 40.2487 1.5 48.2491 1.5V0.499998ZM32.7891 16.04C32.7891 24.5961 39.6929 31.5 48.2491 31.5V30.5C40.2452 30.5 33.7891 24.0439 33.7891 16.04H32.7891ZM48.2491 31.5C56.8035 31.5 63.7491 24.5979 63.7491 16.04H62.7491C62.7491 24.0421 56.2547 30.5 48.2491 30.5V31.5ZM54.9091 16C54.9091 19.6457 51.9311 22.66 48.2491 22.66V23.66C52.487 23.66 55.9091 20.1943 55.9091 16H54.9091ZM48.2491 22.66C44.6088 22.66 41.6291 19.6475 41.6291 16H40.6291C40.6291 20.1925 44.0493 23.66 48.2491 23.66V22.66ZM41.6291 16C41.6291 12.3143 44.607 9.34 48.2491 9.34V8.34C44.0511 8.34 40.6291 11.7657 40.6291 16H41.6291ZM48.2491 9.34C51.9329 9.34 54.9091 12.3161 54.9091 16H55.9091C55.9091 11.7639 52.4852 8.34 48.2491 8.34V9.34ZM76.6931 31L76.218 31.1558L76.3309 31.5H76.6931V31ZM84.6531 31V31.5H85.0135L85.1275 31.1581L84.6531 31ZM87.6131 22.12L88.0887 21.9657L87.6196 20.5193L87.1388 21.9619L87.6131 22.12ZM90.4931 31L90.0175 31.1543L90.1296 31.5H90.4931V31ZM98.4531 31V31.5H98.8149L98.928 31.1564L98.4531 31ZM108.333 0.999998L108.808 1.1564L109.024 0.499998H108.333V0.999998ZM100.333 0.999998V0.499998H99.9707L99.8579 0.844443L100.333 0.999998ZM94.4931 18.84L94.0186 18.9975L94.4963 20.4373L94.9683 18.9956L94.4931 18.84ZM91.5731 10.04L92.0477 9.88253L91.934 9.54H91.5731V10.04ZM83.6131 10.04V9.54H83.2517L83.1384 9.88317L83.6131 10.04ZM80.6931 18.88L80.2178 19.0352L80.6905 20.4822L81.1679 19.0368L80.6931 18.88ZM74.8531 0.999998L75.3284 0.844758L75.2158 0.499998H74.8531V0.999998ZM66.8531 0.999998V0.499998H66.1629L66.378 1.15583L66.8531 0.999998ZM76.6931 31.5H84.6531V30.5H76.6931V31.5ZM85.1275 31.1581L88.0875 22.2781L87.1388 21.9619L84.1788 30.8419L85.1275 31.1581ZM87.1375 22.2743L90.0175 31.1543L90.9687 30.8457L88.0887 21.9657L87.1375 22.2743ZM90.4931 31.5H98.4531V30.5H90.4931V31.5ZM98.928 31.1564L108.808 1.1564L107.858 0.843595L97.9782 30.8436L98.928 31.1564ZM108.333 0.499998H100.333V1.5H108.333V0.499998ZM99.8579 0.844443L94.0179 18.6844L94.9683 18.9956L100.808 1.15555L99.8579 0.844443ZM94.9677 18.6825L92.0477 9.88253L91.0986 10.1975L94.0186 18.9975L94.9677 18.6825ZM91.5731 9.54H83.6131V10.54H91.5731V9.54ZM83.1384 9.88317L80.2184 18.7232L81.1679 19.0368L84.0879 10.1968L83.1384 9.88317ZM81.1684 18.7248L75.3284 0.844758L74.3778 1.15524L80.2178 19.0352L81.1684 18.7248ZM74.8531 0.499998H66.8531V1.5H74.8531V0.499998ZM66.378 1.15583L76.218 31.1558L77.1682 30.8442L67.3282 0.844166L66.378 1.15583Z" fill="black"/>
</svg>
